HIERARCHY
ROOT Hips
{
	OFFSET 0.000000 0.000000 0.000000
	CHANNELS 6 Xposition Yposition Zposition Xrotation Yrotation Zrotation
	JOINT LeftUpLeg_virtual
	{
		OFFSET 0.000000 0.000000 0.000000
		CHANNELS 3 Xrotation Yrotation Zrotation
		JOINT LeftUpLeg
		{
			OFFSET 13.026900 -6.336304 -1.092800
			CHANNELS 3 Xrotation Yrotation Zrotation
			JOINT LeftLeg
			{
				OFFSET 0.524474 -46.096886 9.782700
				CHANNELS 3 Xrotation Yrotation Zrotation
				JOINT LeftFoot
				{
					OFFSET -0.524474 -53.427422 -12.948200
					CHANNELS 3 Xrotation Yrotation Zrotation
					JOINT LeftToeBase
					{
						OFFSET 0.192200 -14.009700 16.364100
						CHANNELS 3 Xrotation Yrotation Zrotation
						JOINT LeftToe_End
						{
							OFFSET -1.784700 -0.561700 9.474800
							CHANNELS 3 Xrotation Yrotation Zrotation
							End Site
							{
								OFFSET 0 0 0
							}
						}
					}
				}
			}
		}
	}
	JOINT RightUpLeg_virtual
	{
		OFFSET 0.000000 0.000000 0.000000
		CHANNELS 3 Xrotation Yrotation Zrotation
		JOINT RightUpLeg
		{
			OFFSET -12.883000 -6.336304 -1.092800
			CHANNELS 3 Xrotation Yrotation Zrotation
			JOINT RightLeg
			{
				OFFSET -0.524587 -46.096825 9.782800
				CHANNELS 3 Xrotation Yrotation Zrotation
				JOINT RightFoot
				{
					OFFSET 0.524587 -53.427383 -12.948300
					CHANNELS 3 Xrotation Yrotation Zrotation
					JOINT RightToeBase
					{
						OFFSET -0.192200 -14.009700 16.364100
						CHANNELS 3 Xrotation Yrotation Zrotation
						JOINT RightToe_End
						{
							OFFSET 1.784700 -0.561700 9.474800
							CHANNELS 3 Xrotation Yrotation Zrotation
							End Site
							{
								OFFSET 0 0 0
							}
						}
					}
				}
			}
		}
	}
	JOINT Spine_virtual
	{
		OFFSET 0.000000 0.000000 0.000000
		CHANNELS 3 Xrotation Yrotation Zrotation
		JOINT Spine
		{
			OFFSET 0.072000 7.257294 -0.789700
			CHANNELS 3 Xrotation Yrotation Zrotation
			JOINT Spine1
			{
				OFFSET 0.000000 12.508769 -0.658067
				CHANNELS 3 Xrotation Yrotation Zrotation
				JOINT Spine1_split
				{
					OFFSET 0.000000 12.508769 -0.658067
					CHANNELS 3 Xrotation Yrotation Zrotation
					JOINT Spine2
					{
						OFFSET 0.000000 12.508769 -0.658067
						CHANNELS 3 Xrotation Yrotation Zrotation
						JOINT Neck_virtual
						{
							OFFSET 0.000000 0.000000 0.000000
							CHANNELS 3 Xrotation Yrotation Zrotation
							JOINT Neck
							{
								OFFSET 0.000000 14.033295 7.520400
								CHANNELS 3 Xrotation Yrotation Zrotation
								JOINT Head
								{
									OFFSET 0.000000 8.198502 5.703100
									CHANNELS 3 Xrotation Yrotation Zrotation
									JOINT HeadTop_End
									{
										OFFSET 0.000000 17.760803 13.332701
										CHANNELS 3 Xrotation Yrotation Zrotation
										End Site
										{
											OFFSET 0 0 0
										}
									}
								}
							}
						}
						JOINT LeftShoulder_virtual
						{
							OFFSET 0.000000 0.000000 0.000000
							CHANNELS 3 Xrotation Yrotation Zrotation
							JOINT LeftShoulder
							{
								OFFSET 6.292450 5.785301 -0.669000
								CHANNELS 3 Xrotation Yrotation Zrotation
								JOINT LeftShoulder_split
								{
									OFFSET 6.292450 5.785301 -0.669000
									CHANNELS 3 Xrotation Yrotation Zrotation
									JOINT LeftArm
									{
										OFFSET 13.907140 -6.093903 1.965100
										CHANNELS 3 Xrotation Yrotation Zrotation
										JOINT LeftForeArm
										{
											OFFSET 34.140198 0.000000 0.000000
											CHANNELS 3 Xrotation Yrotation Zrotation
											JOINT LeftHand
											{
												OFFSET 40.960209 0.000000 0.000000
												CHANNELS 3 Xrotation Yrotation Zrotation
												End Site
												{
													OFFSET 0 0 0
												}
											}
										}
									}
								}
							}
						}
						JOINT RightShoulder_virtual
						{
							OFFSET 0.000000 0.000000 0.000000
							CHANNELS 3 Xrotation Yrotation Zrotation
							JOINT RightShoulder
							{
								OFFSET -6.292450 5.785301 -0.669000
								CHANNELS 3 Xrotation Yrotation Zrotation
								JOINT RightShoulder_split
								{
									OFFSET -6.292450 5.785301 -0.669000
									CHANNELS 3 Xrotation Yrotation Zrotation
									JOINT RightArm
									{
										OFFSET -13.907140 -6.093903 1.965100
										CHANNELS 3 Xrotation Yrotation Zrotation
										JOINT RightForeArm
										{
											OFFSET -34.140198 0.000000 0.000000
											CHANNELS 3 Xrotation Yrotation Zrotation
											JOINT RightHand
											{
												OFFSET -40.960209 0.000000 0.000000
												CHANNELS 3 Xrotation Yrotation Zrotation
												End Site
												{
													OFFSET 0 0 0
												}
											}
										}
									}
								}
							}
						}
					}
				}
			}
		}
	}
}
MOTION
Frames: 4
Frame Time: 0.03333333
73.851166 117.341393 186.026016 0.000000 0.000000 0.000000 -8.316445 37.534799 9.852691 -23.167619 7.870527 -12.826550 25.580375 -7.745557 0.748578 26.468265 1.292227 12.286311 -22.909086 0.342219 3.112473 0.000000 0.000000 0.000000 -7.773063 40.280050 9.637815 -18.312659 14.347108 2.668513 48.119776 -5.982879 -2.412567 19.102267 -6.481565 -5.182181 -40.289015 -0.026213 4.401840 0.000000 0.000000 0.000000 -7.747006 38.013773 9.159031 3.698633 -1.614038 -4.833718 -1.694419 -1.370164 0.915522 0.709014 0.760014 0.018038 0.000000 0.000000 0.000000 -1.659845 -1.209947 1.133338 -8.932486 3.543277 2.315020 6.294078 7.105602 -3.183517 0.000000 0.000000 0.000000 -2.064224 -0.892762 1.250549 1.054153 8.834338 -3.306705 0.854411 2.940599 -1.128232 6.408627 -8.763029 -68.073804 12.147010 -24.862175 4.424906 0.000000 0.000000 0.000000 -1.738649 -1.251140 1.130263 0.679608 1.964839 3.412670 1.447715 1.458887 -3.075524 -0.448256 7.768916 78.009257 11.513225 15.672929 -3.168156 0.000000 0.000000 0.000000 
76.977600 118.473396 189.397430 0.000000 0.000000 0.000000 -7.440900 39.266088 8.220005 -19.395231 6.032153 -12.321363 24.098470 -7.709126 0.948506 21.413948 3.786746 12.942543 -20.184969 0.926382 1.579574 0.000000 0.000000 0.000000 -7.259964 41.494178 8.111490 -25.269933 14.180540 3.267053 44.669891 -5.636716 -2.465554 20.544722 -5.603137 -5.861806 -32.903395 0.078168 4.668979 0.000000 0.000000 0.000000 -7.220505 38.902907 7.838179 4.367696 -2.164903 -4.374785 -1.982611 -1.760328 1.062222 0.792565 0.860169 -0.106082 0.000000 0.000000 0.000000 -1.750204 -1.564006 1.330756 -8.904085 3.586508 2.736073 6.467596 7.377384 -3.742764 0.000000 0.000000 0.000000 -2.120489 -1.320730 1.440640 0.902206 7.690399 -3.056822 0.764971 3.387636 -0.978864 5.135578 -10.810233 -67.886036 12.270730 -25.087565 4.653369 0.000000 0.000000 0.000000 -1.975088 -1.638813 1.331337 0.369419 0.858948 4.151675 1.885193 1.698632 -3.153557 -0.260173 6.638908 77.236134 11.300289 15.631863 -3.272932 0.000000 0.000000 0.000000 
80.372131 119.344635 192.714447 0.000000 0.000000 0.000000 -6.541861 41.277804 6.736788 -15.037049 5.615031 -11.545791 21.896034 -8.462027 0.864159 15.747112 4.513748 13.949827 -18.729098 1.293852 0.500595 0.000000 0.000000 0.000000 -6.438928 42.859393 6.613703 -30.864802 12.712714 2.919948 39.404509 -4.068024 -2.679296 24.770636 -2.991736 -3.921940 -29.401031 0.291277 3.766945 0.000000 0.000000 0.000000 -6.625410 40.147907 6.683901 4.880341 -2.576959 -4.239117 -2.229798 -2.091909 1.205786 1.014210 1.003377 -0.300670 0.000000 0.000000 0.000000 -1.870741 -1.895890 1.504531 -8.883007 3.424085 3.501571 6.396995 7.535780 -4.195249 0.000000 0.000000 0.000000 -2.245549 -1.707334 1.584309 0.759686 6.499018 -2.793713 0.689537 3.591569 -0.860793 3.778414 -12.764468 -67.804927 12.324216 -25.179277 4.898405 0.000000 0.000000 0.000000 -2.162635 -1.999154 1.501464 0.076044 -0.219150 5.031719 2.299952 2.011415 -3.157910 0.143628 5.575780 76.441606 11.172397 15.692624 -3.445350 0.000000 0.000000 0.000000 
83.848145 119.710800 195.875168 0.000000 0.000000 0.000000 -5.926262 43.818146 5.869661 -11.169842 6.727986 -10.321031 19.907720 -10.818888 0.415866 12.496732 2.644157 14.509485 -19.600848 1.221822 0.548719 0.000000 0.000000 0.000000 -5.525272 44.997894 5.549581 -34.698290 10.475010 1.861397 32.741960 -1.981684 -2.729853 29.299722 0.453037 -1.364301 -28.076813 0.491987 2.188805 0.000000 0.000000 0.000000 -6.288543 42.051777 6.119205 5.241684 -2.926866 -4.585687 -2.372902 -2.380257 1.396002 1.000514 1.077269 -0.358752 0.000000 0.000000 0.000000 -2.025121 -2.180675 1.697470 -8.946490 3.058045 4.527556 6.103720 7.572802 -4.440889 0.000000 0.000000 0.000000 -2.417500 -2.025045 1.736189 0.618347 5.376458 -2.400270 0.654303 3.576648 -0.797478 2.381301 -14.400955 -67.861413 12.277887 -25.437776 5.138919 0.000000 0.000000 0.000000 -2.300589 -2.304748 1.684090 -0.173288 -1.241790 5.955196 2.749956 2.401695 -3.111117 0.793109 4.756812 75.579656 11.167773 15.771515 -3.675759 0.000000 0.000000 0.000000 
